<?xml version="1.0" encoding="UTF-8"?>
<!DOCTYPE svg PUBLIC "-//W3C//DTD SVG 1.0//EN" "http://www.w3.org/TR/2001/REC-SVG-20010904/DTD/svg10.dtd">
<svg xmlns="http://www.w3.org/2000/svg" width="600" height="600">
    <desc/>
    <path d="m 56 70 h 224 v 140 h -224 z" stroke="black" stroke-width="3px" fill="none"/>
    
    <g alignment-baseline="baseline" style="fill:#000; stroke:black; stroke-width: 1px">
        
        <rect x="70" y="70" width="20" height="20" transform="rotate(45,70,70)"/>
        <rect x="98" y="70" width="20" height="20" transform="rotate(45,98,70)"/>
        <rect x="126" y="70" width="20" height="20" transform="rotate(45,126,70)"/>
        <rect x="154" y="70" width="20" height="20" transform="rotate(45,154,70)"/>
        <rect x="182" y="70" width="20" height="20" transform="rotate(45,182,70)"/>
        <rect x="210" y="70" width="20" height="20" transform="rotate(45,210,70)"/>
        <rect x="238" y="70" width="20" height="20" transform="rotate(45,238,70)"/>
        <rect x="266" y="70" width="20" height="20" transform="rotate(45,266,70)"/>
    </g>
    <g alignment-baseline="baseline" style="fill:#000; stroke:black; stroke-width: 1px" transform="translate(0,28)">
        
        <rect x="70" y="70" width="20" height="20" transform="rotate(45,70,70)"/>
        <rect x="98" y="70" width="20" height="20" transform="rotate(45,98,70)"/>
        <rect x="126" y="70" width="20" height="20" transform="rotate(45,126,70)"/>
        <rect x="154" y="70" width="20" height="20" transform="rotate(45,154,70)"/>
        <rect x="182" y="70" width="20" height="20" transform="rotate(45,182,70)"/>
        <rect x="210" y="70" width="20" height="20" transform="rotate(45,210,70)"/>
        <rect x="238" y="70" width="20" height="20" transform="rotate(45,238,70)"/>
        <rect x="266" y="70" width="20" height="20" transform="rotate(45,266,70)"/>
    </g>
    <g alignment-baseline="baseline" style="fill:#000; stroke:black; stroke-width: 1px" transform="translate(0,56)" >
        
        <rect x="70" y="70" width="20" height="20" transform="rotate(45,70,70)"/>
        <rect x="98" y="70" width="20" height="20" transform="rotate(45,98,70)"/>
        <rect x="126" y="70" width="20" height="20" transform="rotate(45,126,70)"/>
        <rect x="154" y="70" width="20" height="20" transform="rotate(45,154,70)"/>
        <rect x="182" y="70" width="20" height="20" transform="rotate(45,182,70)"/>
        <rect x="210" y="70" width="20" height="20" transform="rotate(45,210,70)"/>
        <rect x="238" y="70" width="20" height="20" transform="rotate(45,238,70)"/>
        <rect x="266" y="70" width="20" height="20" transform="rotate(45,266,70)"/>
    </g>
    <g alignment-baseline="baseline" style="fill:#000; stroke:black; stroke-width: 1px" transform="translate(0,84)">
        
        <rect x="70" y="70" width="20" height="20" transform="rotate(45,70,70)"/>
        <rect x="98" y="70" width="20" height="20" transform="rotate(45,98,70)"/>
        <rect x="126" y="70" width="20" height="20" transform="rotate(45,126,70)"/>
        <rect x="154" y="70" width="20" height="20" transform="rotate(45,154,70)"/>
        <rect x="182" y="70" width="20" height="20" transform="rotate(45,182,70)"/>
        <rect x="210" y="70" width="20" height="20" transform="rotate(45,210,70)"/>
        <rect x="238" y="70" width="20" height="20" transform="rotate(45,238,70)"/>
        <rect x="266" y="70" width="20" height="20" transform="rotate(45,266,70)"/>
    </g>
    <g alignment-baseline="baseline" style="fill:#000; stroke:black; stroke-width: 1px" transform="translate(0,112)">
        
        <rect x="70" y="70" width="20" height="20" transform="rotate(45,70,70)"/>
        <rect x="98" y="70" width="20" height="20" transform="rotate(45,98,70)"/>
        <rect x="126" y="70" width="20" height="20" transform="rotate(45,126,70)"/>
        <rect x="154" y="70" width="20" height="20" transform="rotate(45,154,70)"/>
        <rect x="182" y="70" width="20" height="20" transform="rotate(45,182,70)"/>
        <rect x="210" y="70" width="20" height="20" transform="rotate(45,210,70)"/>
        <rect x="238" y="70" width="20" height="20" transform="rotate(45,238,70)"/>
        <rect x="266" y="70" width="20" height="20" transform="rotate(45,266,70)"/>
    </g>
</svg>
