<?xml version="1.0" encoding="UTF-8"?>
<!DOCTYPE svg PUBLIC "-//W3C//DTD SVG 1.0//EN" "http://www.w3.org/TR/2001/REC-SVG-20010904/DTD/svg10.dtd">
<svg xmlns="http://www.w3.org/2000/svg" width="600" height="600">
    <desc/>
    <g style="stroke:#05f;stroke-width:3px;fill:#fff">
        <path d="m 100 100 a 20 15 0 01 30 0 a 20 15 0 00 30 0 a 20 15 0 01 30 0 a 20 15 0 00 30 0 a 20 15 0 01 30 0 a 20 15 0 00 30 0 a 20 15 0 01 30 0 a 20 15 0 00 30 0 a 20 15 0 01 30 0 a 20 15 0 00 30 0"/>
        <path d="m 100 140 a 20 15 0 01 30 0 a 20 15 0 00 30 0 a 20 15 0 01 30 0 a 20 15 0 00 30 0 a 20 15 0 01 30 0 a 20 15 0 00 30 0 a 20 15 0 01 30 0 a 20 15 0 00 30 0 a 20 15 0 01 30 0 a 20 15 0 00 30 0"/>
        <path d="m 100 180 a 20 15 0 01 30 0 a 20 15 0 00 30 0 a 20 15 0 01 30 0 a 20 15 0 00 30 0 a 20 15 0 01 30 0 a 20 15 0 00 30 0 a 20 15 0 01 30 0 a 20 15 0 00 30 0 a 20 15 0 01 30 0 a 20 15 0 00 30 0"/>
        <path d="m 100 220 a 20 15 0 01 30 0 a 20 15 0 00 30 0 a 20 15 0 01 30 0 a 20 15 0 00 30 0 a 20 15 0 01 30 0 a 20 15 0 00 30 0 a 20 15 0 01 30 0 a 20 15 0 00 30 0 a 20 15 0 01 30 0 a 20 15 0 00 30 0"/>
        <path d="m 100 260 a 20 15 0 01 30 0 a 20 15 0 00 30 0 a 20 15 0 01 30 0 a 20 15 0 00 30 0 a 20 15 0 01 30 0 a 20 15 0 00 30 0 a 20 15 0 01 30 0 a 20 15 0 00 30 0 a 20 15 0 01 30 0 a 20 15 0 00 30 0"/>
        <path d="m 100 300 a 20 15 0 01 30 0 a 20 15 0 00 30 0 a 20 15 0 01 30 0 a 20 15 0 00 30 0 a 20 15 0 01 30 0 a 20 15 0 00 30 0 a 20 15 0 01 30 0 a 20 15 0 00 30 0 a 20 15 0 01 30 0 a 20 15 0 00 30 0"/>
        
    </g>
</svg>
